<svg width="18" height="18" viewBox="0 0 18 18" fill="none" xmlns="http://www.w3.org/2000/svg">
<path d="M10.4024 9.00627L17.7153 1.69137C18.0949 1.31163 18.0949 0.692066 17.7153 0.292344C17.3356 -0.107377 16.7163 -0.087391 16.3166 0.292344L9.00377 7.60724L1.6909 0.292344C1.31127 -0.087391 0.691874 -0.087391 0.292263 0.292344C-0.107347 0.67208 -0.0873668 1.29165 0.292263 1.69137L7.60513 9.00627L0.292263 16.3212C-0.0873668 16.7009 -0.0873668 17.3205 0.292263 17.7202C0.492068 17.9201 0.731835 18 0.991581 18C1.25133 18 1.49109 17.9001 1.6909 17.7202L9.00377 10.4053L16.3166 17.7202C16.5164 17.9201 16.7562 18 17.016 18C17.2757 18 17.5155 17.9001 17.7153 17.7202C18.0949 17.3405 18.0949 16.7209 17.7153 16.3212L10.4024 9.00627Z" fill="black" fill-opacity="0.3"/>
</svg>

